<svg xmlns="http://www.w3.org/2000/svg" viewBox="0 0 512 512" style="height: 512px; width: 512px;"><rect fill="#e3d009" fill-opacity="1" height="512" width="512" rx="32" ry="32"></rect><g class="" transform="translate(0,0)" style=""><g><path d="M445.1 22.93C441.3 23.04 437.2 24.74 433.6 28.91C379.2 107.6 318.8 184.7 257.3 261.4C259.6 262.3 261.8 263.3 263.8 264.5C268.3 267 272.2 270.1 275.5 273.5C339 197.6 401.3 121.1 455.6 40.87C459.9 31.03 456.7 27.04 451.8 24.47C450.6 23.82 449.2 23.34 447.7 23.1C446.9 22.97 446 22.91 445.1 22.93Z" class="" fill="#b57204" fill-opacity="1"></path><path d="M63.14 46.41C70.83 59.91 79.74 72.9 65.39 93.56C75.84 82.84 88.34 72.05 107.8 92.16C103.6 81.99 90.54 74.17 101.7 58.45C84.64 67.03 75.84 58.45 63.14 46.41Z" class="" fill="#fff" fill-opacity="1"></path><path d="M267.2 94.02C259.8 105.1 248.9 108.7 234.6 104.3C248.9 109.2 256.1 118.8 252.3 136C260.6 120.5 270.4 114.6 281.8 118.9C275.4 112.6 264.5 111.9 267.2 94.02Z" class="" fill="#fff" fill-opacity="1"></path><path d="M448.7 140.8C444.7 163.3 442.7 186.7 405.5 191.7C428.4 192.5 453.6 195.4 457.2 237.9C462.2 222.9 454.2 200.1 482.8 196.6C454.2 186.2 452.1 167.4 448.7 140.8Z" class="" fill="#fff" fill-opacity="1"></path><path d="M89.78 236.8C91.88 261.6 81.68 278.2 52.7 282.4C82.08 286.1 97.58 297.8 98.58 317.9C104.2 304.4 97.88 287.1 127.3 281.1C105.2 275.9 92.48 261.4 89.78 236.8Z" class="selected" fill="#fff" fill-opacity="1"></path><path d="M245.2 276.5L231.8 293.1C233.3 293.9 234.8 294.8 236.3 295.7C240.7 298.5 245 301.8 248.6 305.5L263.8 287.5C261.5 284.8 258.4 282.1 254.9 280.1C251.9 278.4 248.6 277.1 245.2 276.5Z" class="" fill="#000000" fill-opacity="1"></path><path d="M208 304.1C207.2 304.1 206.5 304.1 206 304.2C205 304.4 204.5 304.7 204.3 304.9L203.8 305.5L203.2 305.9C156.3 341.9 86.14 376.6 29.23 410.2C44 414.6 59.06 419.9 73.81 425.8L110.2 395.3L88.37 432C105.4 439.6 121.8 448.2 136.4 457.6L163.7 413.8L151.5 468C160.5 474.7 168.5 481.8 175.3 489.1C202.5 430 238.3 388.9 243 334.3L243.1 333.7L243.2 333.1C243.8 330.8 243 327.4 240.1 323.1C237.1 318.9 232.2 314.4 226.7 310.9C221.3 307.5 215.2 305.1 210.8 304.4C209.7 304.2 208.8 304.1 208 304.1Z" class="" fill="#f7a319" fill-opacity="1"></path><path d="M319.2 304.3C328.9 317.4 329.1 330.1 314.5 342.6C332.1 334.4 344.8 335.4 352.3 346.2C350.6 336.8 341.2 329.4 355.3 315.8C341.3 320.6 329.2 317 319.2 304.3Z" class="" fill="#fff" fill-opacity="1"></path><path d="M375.9 395.1C387.6 412.5 395.9 424.6 380 442.9C403.4 432.9 409.5 449.9 421.2 456.7C401.3 429.9 418.6 417.4 435.3 407.2C404.8 420 390.9 406.9 375.9 395.1Z" class="" fill="#fff" fill-opacity="1"></path></g></g></svg>