<svg xmlns="http://www.w3.org/2000/svg" viewBox="0 0 512 512" style="height: 512px; width: 512px;"><rect fill="#e3d009" fill-opacity="1" height="512" width="512" rx="32" ry="32"></rect><g class="" transform="translate(0,0)" style=""><g><path d="M274.174 41.604C271.376 41.594 268.598 41.66 265.842 41.799C169.172 46.649 88.462 128.729 48 233.799C7.538 338.859 48.914 473.769 138.336 471.279C227.756 468.779 156.426 371.679 203.822 325.159C228.167 301.259 262.674 309.679 298.029 319.519L280.429 296.539L276.229 291.059C274.849 291.119 273.439 291.161 271.969 291.149C263.729 291.085 254.149 290.609 246.719 283.802C232.829 271.072 232.319 252.498 232.639 235.894C232.959 219.289 233.759 203.519 228.589 193.307L222.889 182.067L235.484 181.697C236.53 181.667 237.581 181.647 238.634 181.644C254.434 181.571 270.938 184.42 285.548 190.674C301.132 197.344 314.802 208.114 321.702 223.727C325.882 233.187 325.367 243.843 322.325 253.495C321.688 255.498 320.94 257.465 320.085 259.385L374.985 331.065C381.195 330.015 387.169 328.129 392.829 325.145C438.919 300.832 490.142 247.435 481.099 196.115C466.259 111.885 360.899 41.855 274.159 41.595Z" class="" fill="#ffe7be" fill-opacity="1"></path><path d="M334.964 81.492C341.546 81.782 347.764 84.232 352.877 88.552C367.619 101.006 369.708 125.572 357.543 143.422C345.378 161.273 323.565 165.647 308.823 153.192C294.081 140.738 291.993 116.172 304.158 98.322C311.657 87.319 323.264 80.977 334.963 81.492Z" class="" fill="#1a2bff" fill-opacity="1"></path><path d="M215.114 85.959C231.043 86.432 246.001 101.803 249.717 121.519C253.711 142.72 243.318 161.215 226.504 162.829C209.688 164.444 192.818 148.563 188.826 127.359C184.832 106.158 195.225 87.663 212.039 86.049C213.052 85.952 214.077 85.918 215.109 85.949Z" class="" fill="#ff7a00" fill-opacity="1"></path><path d="M126.784 165.539C145.678 165.539 162.761 180.335 164.944 198.589C167.12 216.842 153.57 231.637 134.678 231.639C115.783 231.641 98.697 216.844 96.514 198.589C94.332 180.331 107.885 165.528 126.784 165.529Z" class="" fill="#00a86b" fill-opacity="1"></path><path d="M421.256 170C429.147 170.385 436.34 173.761 441.666 179.578C454.698 193.811 453.393 218.664 438.752 235.088C424.111 251.512 401.677 253.288 388.645 239.054C375.614 224.82 376.919 199.967 391.561 183.544C399.652 174.467 410.589 169.479 421.26 170Z" class="" fill="#ff0037" fill-opacity="1"></path><path d="M247.104 197.95C250.086 210.724 248.888 224.147 248.652 236.225C248.342 252.118 249.386 264.545 257.542 272.022C258.732 273.112 265.56 275.114 272.098 275.165C275.366 275.191 278.538 274.945 280.816 274.63C281.616 274.524 282.411 274.382 283.199 274.205L296.219 264.843L296.239 264.829C300.699 261.659 304.959 255.459 307.089 248.699C309.219 241.939 309.159 234.889 307.089 230.209C302.259 219.279 292.249 210.949 279.269 205.399C269.539 201.229 258.269 198.749 247.099 197.949Z" class="selected" fill="#ffa038" fill-opacity="1" stroke="#ccc" stroke-opacity="1" stroke-width="0"></path><path d="M314.559 281.758L300.189 292.758L438.97 473.97L453.33 462.972L314.557 281.762Z" class="" fill="#336c77" fill-opacity="1"></path><path d="M114.209 341.918C137.212 341.918 158.013 363.34 160.669 389.768C163.323 416.198 146.825 437.622 123.819 437.62C100.815 437.62 80.014 416.196 77.359 389.768C74.706 363.339 91.204 341.916 114.209 341.918Z" class="" fill="#c24e9b" fill-opacity="1"></path></g></g></svg>