<svg xmlns="http://www.w3.org/2000/svg" viewBox="0 0 512 512" style="height: 512px; width: 512px;"><rect fill="#e3d009" fill-opacity="1" height="512" width="512" rx="32" ry="32"></rect><g class="" transform="translate(-151,41)" style=""><g transform="translate(76.8, 76.8) scale(0.7, 0.7) rotate(15, 256, 256) skewX(53) skewY(-21)"><path d="M97.594 11.22C146.381 75.404 173.788 145.882 194.406 231.313L117.03 231.313L129.5 246.563L157.938 281.343L252.375 399.593L275.688 370.156L376.718 246.562L389.188 231.312L314.406 231.312C335.026 145.88 362.43 75.405 411.22 11.22L331.72 11.22C289.51 81.954 276.86 157.277 266.03 250L349.78 250L253.125 368.25L156.437 250L242.687 250C232.047 157.177 217.479 81.007 175.812 11.22L97.594 11.22Z" class="selected" fill="#f70508" fill-opacity="1"></path><path d="M102.469 373.78C95.889 375.445 89.599 377.204 83.655 379.063C62.015 385.829 44.81 393.878 33.655 402.125C22.501 410.372 18.093 417.998 18.093 424.595C18.093 431.19 22.501 438.815 33.655 447.062C44.81 455.309 62.015 463.358 83.655 470.125C126.933 483.658 187.809 492.25 255.03 492.25C322.253 492.25 383.128 483.658 426.406 470.125C448.046 463.358 465.252 455.309 476.406 447.062C487.561 438.816 491.969 431.19 491.969 424.594C491.969 417.998 487.559 410.372 476.405 402.124C465.251 393.878 448.045 385.829 426.405 379.062C420.461 377.204 414.172 375.445 407.593 373.782C426.446 382.922 437.437 393.842 437.437 405.594C437.437 437.66 355.772 463.656 255.03 463.656C154.29 463.656 72.625 437.66 72.625 405.594C72.625 393.844 83.615 382.921 102.469 373.781Z" class="" fill="#f70508" fill-opacity="1"></path><path d="M166.405 379.5C161.53 380.673 156.892 381.937 152.593 383.28C139.773 387.29 129.66 392.087 123.437 396.688C117.213 401.288 115.53 404.893 115.53 407.281C115.53 409.671 117.214 413.275 123.437 417.876C129.661 422.476 139.773 427.273 152.594 431.282C178.236 439.302 214.721 444.472 255.031 444.472C295.341 444.472 331.859 439.302 357.501 431.282C370.321 427.274 380.403 422.478 386.626 417.877C392.849 413.277 394.532 409.672 394.532 407.283C394.532 404.896 392.85 401.291 386.627 396.691C380.404 392.091 370.323 387.293 357.502 383.284C353.194 381.938 348.546 380.679 343.658 379.504C352.35 384.291 357.346 389.859 357.346 395.784C357.346 413.771 311.538 428.348 255.033 428.348C198.529 428.348 152.723 413.771 152.723 395.785C152.723 389.862 157.725 384.291 166.409 379.505Z" class="" fill="#f70508" fill-opacity="1"></path></g></g></svg>